<?xml version="1.0" encoding="UTF-8"?>
<svg id="Layer_2" data-name="Layer 2" xmlns="http://www.w3.org/2000/svg" viewBox="0 0 765.77 250.72">
  <defs>
    <style>
      .cls-1 {
        fill: #e3d8cf;
      }
    </style>
  </defs>
  <g id="Layer_1-2" data-name="Layer 1">
    <g>
      <g>
        <path class="cls-1" d="M230.34,216.08l-17.31,17.31V87.81l7.88,14.52L114.25,32.99h18.87S26.75,102.05,26.75,102.05l7.89-14.52c-.23,44.91-.3,97.18-.32,141.98-.07-9.83-11.32-16.55-20.35-10.51-.57.39-1.5,1.14-1.82,1.51.25-.24.95-.96,1.21-1.22,11.02-11.12,87.52-73.95,104.32-87.72,1.9-1.56,4.63-1.58,6.56-.05h.01c2.27,1.81,2.66,5.12.85,7.39-24.96,31.34-61.95,78.52-88.4,105.15-6.41,6.86-16.75,8.63-25.01,4.3-6.14-3.05-10.79-9.8-11.26-16.8-.16-1.28-.07-5.26-.1-6.63C.3,180.44.22,129.41,0,84.31c-.02-3.84,1.92-7.42,5.14-9.52C26.09,61.19,95.25,16.29,117.55,1.82c3.74-2.43,8.56-2.43,12.29,0,22.31,14.51,91.77,59.65,112.68,73.25,3.2,2.08,5.13,5.63,5.13,9.45,0,32.25,0,151.06,0,166.18,0,0-17.31,0-17.31,0H67.12c-4.56,0-6.99-5.39-3.96-8.8l20.49-23.12c1.52-1.72,3.71-2.7,6.01-2.7h140.68Z"/>
        <g>
          <path class="cls-1" d="M147.1,129.72c-1.38-.08-2.74.41-3.75,1.35-1,.95-1.58,2.28-1.58,3.66s.58,2.71,1.58,3.66c.93.88,2.17,1.36,3.45,1.36.1,0,.21,0,.31,0l39.54-2.69c1.21-.08,2.14-1.08,2.14-2.29h0c0-1.21-.93-2.21-2.14-2.29l-39.55-2.75Z"/>
          <path class="cls-1" d="M100.51,129.72l-39.54,2.75c-1.2.08-2.14,1.09-2.14,2.29h0c0,1.21.94,2.21,2.14,2.29l39.55,2.69c.1,0,.2,0,.3,0,1.27,0,2.51-.49,3.44-1.36,1-.95,1.58-2.28,1.58-3.66s-.58-2.71-1.58-3.66c-1-.95-2.37-1.44-3.76-1.35Z"/>
          <path class="cls-1" d="M125.09,119.9c1.38,0,2.71-.58,3.66-1.58.95-1,1.44-2.37,1.35-3.76l-2.75-39.54c-.08-1.2-1.09-2.14-2.29-2.14h0c-1.21,0-2.21.94-2.29,2.14l-2.69,39.55c-.08,1.38.41,2.74,1.35,3.75.95,1,2.28,1.58,3.66,1.58Z"/>
          <path class="cls-1" d="M125.09,150.57c-1.38,0-2.71.58-3.66,1.58-.95,1-1.44,2.37-1.35,3.76l2.69,39.54c.08,1.21,1.08,2.14,2.29,2.14h0c1.21,0,2.21-.93,2.29-2.14l2.75-39.55c.08-1.38-.41-2.74-1.35-3.75-.95-1-2.28-1.58-3.66-1.58Z"/>
          <path class="cls-1" d="M139.05,145.47c-.97-.02-1.86.32-2.51.97-.65.65-1,1.54-.97,2.51.03,1.17.58,2.33,1.53,3.19l21.5,19.38c.84.76,2.13.73,2.93-.08h0c.8-.8.84-2.09.08-2.93l-19.36-21.53c-.85-.94-2.01-1.49-3.18-1.52Z"/>
          <path class="cls-1" d="M140.43,124s.06,0,.09,0c1.17-.03,2.33-.58,3.19-1.53l19.38-21.5c.76-.84.73-2.13-.08-2.93h0c-.8-.8-2.09-.83-2.93-.08l-21.53,19.36c-.94.85-1.49,2.01-1.52,3.18-.02.97.32,1.86.97,2.51.63.63,1.49.97,2.42.97Z"/>
          <path class="cls-1" d="M87.12,98.04h0c-.8.8-.83,2.09-.08,2.93l19.39,21.5c.85.94,2.01,1.49,3.18,1.52.03,0,.06,0,.09,0,.93,0,1.79-.34,2.42-.97.65-.65,1-1.54.97-2.51-.03-1.17-.58-2.33-1.53-3.19l-21.52-19.36c-.84-.76-2.13-.72-2.93.08Z"/>
        </g>
      </g>
      <g>
        <g>
          <path class="cls-1" d="M305.42,55.4l16.31,59.56,16.18-59.56h12.72l16.31,59.56,16.18-59.56h12.72l-22.61,82.89h-12.72l-16.18-59.56-16.31,59.56h-12.72l-22.61-82.89h12.72Z"/>
          <path class="cls-1" d="M436.62,54.09c6.92,0,12.93,1.22,18.04,3.67,5.11,2.45,9.35,5.67,12.72,9.65,3.38,3.99,5.87,8.55,7.47,13.68,1.61,5.13,2.39,10.36,2.35,15.69-.04,5.33-.95,10.56-2.72,15.69-1.77,5.13-4.35,9.69-7.72,13.68-3.38,3.99-7.6,7.2-12.66,9.65-5.07,2.45-10.89,3.67-17.48,3.67s-12.54-1.22-17.6-3.67c-5.07-2.45-9.31-5.66-12.72-9.65-3.42-3.99-5.99-8.54-7.72-13.68-1.73-5.13-2.62-10.36-2.66-15.69-.04-5.33.78-10.56,2.47-15.69,1.69-5.13,4.22-9.69,7.6-13.68,3.38-3.99,7.62-7.2,12.72-9.65,5.11-2.45,11.08-3.67,17.91-3.67ZM436.38,126.44c6.09,0,11.16-1.46,15.2-4.38,4.03-2.92,7.06-6.59,9.08-11.01,2.02-4.42,3.03-9.18,3.03-14.27s-1.01-9.85-3.03-14.27c-2.02-4.42-5.03-8.09-9.02-11.01-4-2.92-9-4.38-15.01-4.38s-10.91,1.46-14.95,4.38c-4.04,2.92-7.06,6.59-9.08,11.01-2.02,4.42-3.03,9.18-3.03,14.27s.99,9.85,2.97,14.27c1.98,4.42,4.94,8.09,8.89,11.01,3.95,2.92,8.94,4.38,14.95,4.38Z"/>
          <path class="cls-1" d="M522.98,54.09c6.92,0,12.93,1.22,18.04,3.67,5.11,2.45,9.35,5.67,12.72,9.65,3.38,3.99,5.87,8.55,7.47,13.68,1.61,5.13,2.39,10.36,2.35,15.69-.04,5.33-.95,10.56-2.72,15.69-1.77,5.13-4.35,9.69-7.72,13.68-3.38,3.99-7.6,7.2-12.66,9.65-5.07,2.45-10.89,3.67-17.48,3.67s-12.54-1.22-17.6-3.67c-5.07-2.45-9.31-5.66-12.72-9.65-3.42-3.99-5.99-8.54-7.72-13.68-1.73-5.13-2.62-10.36-2.66-15.69-.04-5.33.78-10.56,2.47-15.69,1.69-5.13,4.22-9.69,7.6-13.68,3.38-3.99,7.62-7.2,12.72-9.65,5.11-2.45,11.08-3.67,17.91-3.67ZM522.73,126.44c6.09,0,11.16-1.46,15.2-4.38,4.03-2.92,7.06-6.59,9.08-11.01,2.02-4.42,3.03-9.18,3.03-14.27s-1.01-9.85-3.03-14.27c-2.02-4.42-5.03-8.09-9.02-11.01-4-2.92-9-4.38-15.01-4.38s-10.91,1.46-14.95,4.38c-4.04,2.92-7.06,6.59-9.08,11.01-2.02,4.42-3.03,9.18-3.03,14.27s.99,9.85,2.97,14.27c1.98,4.42,4.94,8.09,8.89,11.01,3.95,2.92,8.94,4.38,14.95,4.38Z"/>
          <path class="cls-1" d="M569.19,55.4h31.87c5.68,0,10.67,1.18,14.95,3.55,4.28,2.37,7.84,5.51,10.69,9.41,2.84,3.91,4.98,8.33,6.42,13.26,1.44,4.93,2.18,10.01,2.22,15.22.04,5.21-.64,10.28-2.04,15.22-1.4,4.93-3.54,9.35-6.42,13.26-2.88,3.91-6.47,7.05-10.75,9.41-4.28,2.37-9.31,3.55-15.07,3.55h-31.87V55.4ZM601.43,66.05h-26.69v1.18c1.56,0,3.09.49,4.57,1.48,1.48.99,2.22,2.55,2.22,4.68v54.11h20.39c4.45,0,8.13-1.52,11.06-4.56,2.92-3.04,5.13-6.83,6.61-11.37,1.48-4.54,2.22-9.47,2.22-14.8s-.76-10.26-2.29-14.8c-1.52-4.54-3.79-8.33-6.79-11.37-3.01-3.04-6.78-4.56-11.3-4.56Z"/>
          <path class="cls-1" d="M640.97,55.4h55.98v10.66h-50.42v1.18c.74,0,1.52.08,2.35.24.82.16,1.56.47,2.22.95.66.47,1.19,1.11,1.61,1.89.41.79.62,1.82.62,3.08v18.12h36.09v10.66h-36.09v25.46h43.63v10.66h-55.98V55.4Z"/>
          <path class="cls-1" d="M753.29,55.4h12.35v82.65l.12.24h-13.47l-36.82-57.19v57.19h-12.35V55.4h13.84l36.33,56.13v-56.13Z"/>
        </g>
        <g>
          <path class="cls-1" d="M292.7,249.53l12.35-82.89h12.85l14.21,49.38,15.44-49.38h13.1l12.35,82.89h-12.48l-8.4-56.36-13.84,44.17h-12.85l-12.11-42.15-8.15,54.35h-12.48Z"/>
          <path class="cls-1" d="M400.8,166.64h16.53l24.71,82.89h-12.85l-7.66-25.58h-32.84v1.18c2.14,0,3.79.47,4.94,1.42,1.15.95,1.4,2.45.74,4.5l-5.44,18.47h-12.85l24.71-82.89ZM400.06,212.11h18.02l-9.01-23.92-9.01,23.92Z"/>
          <path class="cls-1" d="M506.78,234.85c-2.72,5.21-6.16,9.16-10.32,11.84-4.16,2.68-9.12,4.03-14.89,4.03-6.67,0-12.54-1.22-17.61-3.67-5.06-2.45-9.31-5.66-12.72-9.65-3.42-3.99-5.99-8.54-7.72-13.68-1.73-5.13-2.62-10.36-2.66-15.69-.04-5.33.78-10.56,2.47-15.69,1.69-5.13,4.22-9.69,7.6-13.68,3.38-3.99,7.62-7.2,12.73-9.65,5.11-2.45,11.08-3.67,17.91-3.67,4.69,0,8.96.57,12.79,1.72,3.83,1.15,7.27,2.74,10.32,4.8,3.05,2.05,5.68,4.48,7.91,7.28,2.22,2.8,4.08,5.86,5.56,9.18l-11.98,4.97c-2.06-4.26-5.19-7.82-9.39-10.66-4.2-2.84-9.27-4.26-15.2-4.26-6.26,0-11.41,1.46-15.44,4.38-4.04,2.92-7.02,6.59-8.96,11.01-1.94,4.42-2.84,9.18-2.72,14.27.12,5.09,1.21,9.85,3.27,14.27,2.06,4.42,5.06,8.09,9.02,11.01,3.95,2.92,8.81,4.38,14.58,4.38,4.28,0,7.97-.73,11.06-2.19,3.09-1.46,5.66-3.33,7.72-5.62,2.06-2.29,3.68-4.85,4.88-7.7,1.19-2.84,2.04-5.64,2.53-8.41h-17.42v-10.78h29.77v46.54l-11,.12v-14.21c.16-1.82,0-2.72-.49-2.72-.33,0-.87.71-1.61,2.13Z"/>
          <path class="cls-1" d="M526.05,184.29h12.35v65.24h-12.35v-65.24Z"/>
          <path class="cls-1" d="M609.2,193.29c-2.06-4.26-5.19-7.82-9.39-10.66-4.2-2.84-9.27-4.26-15.2-4.26-6.26,0-11.41,1.46-15.44,4.38-4.04,2.92-7.02,6.59-8.96,11.01-1.94,4.42-2.84,9.18-2.72,14.27.12,5.09,1.21,9.85,3.27,14.27,2.06,4.42,5.06,8.09,9.02,11.01,3.95,2.92,8.81,4.38,14.58,4.38,3.62,0,6.86-.53,9.7-1.6,2.84-1.07,5.31-2.49,7.41-4.26,2.1-1.78,3.85-3.89,5.25-6.33,1.4-2.45,2.47-5.01,3.21-7.7l12.97,4.03c-1.23,3.95-2.95,7.68-5.13,11.19-2.18,3.51-4.88,6.57-8.09,9.18-3.21,2.61-6.9,4.68-11.06,6.22-4.16,1.54-8.83,2.31-14.02,2.31-6.67,0-12.54-1.22-17.61-3.67-5.06-2.45-9.31-5.66-12.72-9.65-3.42-3.99-5.99-8.54-7.72-13.68-1.73-5.13-2.62-10.36-2.66-15.69-.04-5.33.78-10.56,2.47-15.69,1.69-5.13,4.22-9.69,7.6-13.68,3.38-3.99,7.62-7.2,12.73-9.65,5.11-2.45,11.08-3.67,17.91-3.67,4.69,0,8.96.57,12.79,1.72,3.83,1.15,7.27,2.74,10.32,4.8,3.05,2.05,5.68,4.48,7.91,7.28,2.22,2.8,4.08,5.86,5.56,9.18l-11.98,4.97Z"/>
        </g>
        <path class="cls-1" d="M532.44,151.37c1.11,3.89,2.43,6.82,3.96,8.76,1.53,1.95,3.89,3.69,7.09,5.21-3.2,1.53-5.56,3.27-7.09,5.21-1.53,1.95-2.92,4.87-4.17,8.76-1.25-3.89-2.64-6.81-4.17-8.76-1.53-1.95-3.89-3.68-7.09-5.21,3.2-1.53,5.56-3.27,7.09-5.21,1.53-1.95,2.99-4.87,4.38-8.76Z"/>
      </g>
    </g>
  </g>
</svg>