<?xml version="1.0" encoding="UTF-8"?>
<svg id="Layer_2" data-name="Layer 2" xmlns="http://www.w3.org/2000/svg" viewBox="0 0 443.63 443.63">
  <defs>
    <style>
      .cls-1 {
        fill: #6f3b1a;
      }

      .cls-2 {
        fill: #e3d8cf;
      }
    </style>
  </defs>
  <g id="Layer_1-2" data-name="Layer 1">
    <rect class="cls-1" width="443.63" height="443.63" rx="55.83" ry="55.83"/>
    <g>
      <path class="cls-2" d="M366.09,344.7l-23.45,23.45v-197.2l10.67,19.66-144.46-93.92h25.56s-144.08,93.54-144.08,93.54l10.68-19.67c-.31,60.83-.4,131.64-.43,192.33-.1-13.32-15.34-22.42-27.57-14.24-.77.52-2.04,1.55-2.46,2.05.33-.33,1.29-1.31,1.64-1.65,14.93-15.06,118.55-100.17,141.3-118.83,2.58-2.11,6.27-2.14,8.89-.07h.01c3.08,2.45,3.6,6.93,1.15,10.01-33.81,42.45-83.91,106.37-119.74,142.44-8.68,9.29-22.69,11.69-33.88,5.83-8.32-4.14-14.61-13.27-15.26-22.76-.22-1.74-.1-7.13-.13-8.99-.03-60.26-.13-129.39-.44-190.48-.03-5.21,2.59-10.06,6.96-12.89,28.38-18.43,122.07-79.24,152.26-98.85,5.07-3.29,11.59-3.29,16.65,0,30.22,19.65,124.31,80.81,152.63,99.23,4.34,2.82,6.95,7.63,6.95,12.81,0,43.69,0,204.63,0,225.1,0,0-23.45,0-23.45,0h-221.09c-6.18,0-9.47-7.3-5.37-11.92l27.75-31.32c2.06-2.33,5.03-3.66,8.14-3.66h190.56Z"/>
      <g>
        <path class="cls-2" d="M253.34,227.73c-1.87-.11-3.72.55-5.08,1.84-1.36,1.28-2.14,3.09-2.14,4.96s.78,3.67,2.14,4.96c1.26,1.19,2.94,1.85,4.68,1.85.14,0,.28,0,.42-.01l53.55-3.64c1.63-.11,2.9-1.47,2.9-3.11h0c0-1.64-1.27-2.99-2.9-3.11l-53.58-3.73Z"/>
        <path class="cls-2" d="M190.23,227.73l-53.56,3.73c-1.63.11-2.9,1.47-2.9,3.11h0c0,1.64,1.27,3,2.9,3.11l53.57,3.64c.14,0,.27.01.41.01,1.72,0,3.41-.66,4.67-1.85,1.36-1.28,2.14-3.09,2.14-4.96s-.78-3.67-2.14-4.96c-1.36-1.28-3.21-1.95-5.1-1.83Z"/>
        <path class="cls-2" d="M223.53,214.42c1.87,0,3.67-.78,4.96-2.14,1.28-1.36,1.95-3.21,1.83-5.1l-3.73-53.56c-.11-1.63-1.47-2.9-3.11-2.9h0c-1.64,0-3,1.27-3.11,2.9l-3.64,53.57c-.11,1.87.56,3.72,1.84,5.08,1.28,1.36,3.09,2.14,4.96,2.14Z"/>
        <path class="cls-2" d="M223.53,255.96c-1.87,0-3.67.78-4.96,2.14-1.28,1.36-1.95,3.21-1.83,5.09l3.64,53.55c.11,1.63,1.47,2.9,3.11,2.9h0c1.64,0,2.99-1.27,3.11-2.9l3.73-53.58c.11-1.87-.56-3.72-1.84-5.08-1.28-1.36-3.09-2.14-4.96-2.14Z"/>
        <path class="cls-2" d="M242.44,249.06c-1.31-.03-2.52.44-3.4,1.32-.88.88-1.35,2.09-1.32,3.4.04,1.58.79,3.15,2.07,4.32l29.12,26.26c1.14,1.03,2.88.98,3.97-.1h0c1.08-1.08,1.13-2.83.11-3.97l-26.23-29.17c-1.16-1.27-2.73-2.02-4.31-2.06Z"/>
        <path class="cls-2" d="M244.31,219.97s.08,0,.12,0c1.58-.04,3.15-.79,4.32-2.07l26.26-29.12c1.03-1.14.98-2.89-.1-3.97h0c-1.08-1.08-2.83-1.13-3.97-.1l-29.17,26.23c-1.27,1.16-2.02,2.73-2.06,4.31-.03,1.31.44,2.52,1.32,3.4.85.85,2.01,1.32,3.28,1.32Z"/>
        <path class="cls-2" d="M172.1,184.82h0c-1.09,1.08-1.13,2.83-.1,3.97l26.26,29.13c1.16,1.27,2.73,2.02,4.31,2.06.04,0,.08,0,.12,0,1.27,0,2.43-.47,3.28-1.32.88-.88,1.35-2.09,1.32-3.4-.04-1.58-.79-3.15-2.07-4.32l-29.15-26.22c-1.14-1.02-2.88-.98-3.97.1Z"/>
      </g>
    </g>
  </g>
</svg>